<svg xmlns="http://www.w3.org/2000/svg" viewBox="0 0 100 100">
  <rect width="100" height="100" rx="22" fill="#6366f1"/>
  <rect x="32" y="17" width="28" height="46" rx="14" fill="#fff"/>
  <path d="M23 45a4 4 0 0 1 8 0v4c0 8.3 6.7 15 15 15s15-6.7 15-15v-4a4 4 0 0 1 8 0v4c0 11.2-8.2 20.4-19 22v7h9a4 4 0 0 1 0 8H33a4 4 0 0 1 0-8h9v-7c-10.8-1.6-19-10.8-19-22v-4Z" fill="#fff"/>
  <path d="M60 55h19a6 6 0 0 1 6 6v20a6 6 0 0 1-6 6H60a6 6 0 0 1-6-6V61a6 6 0 0 1 6-6Z" fill="#67e8f9"/>
  <path d="M61 65h16M61 72h14M61 79h10" stroke="#312e81" stroke-width="4" stroke-linecap="round"/>
  <circle cx="70" cy="27" r="7" fill="#ef4444"/>
</svg>
